<?xml version="1.0" standalone="no"?>
<!DOCTYPE svg PUBLIC "-//W3C//DTD SVG 20010904//EN"
 "http://www.w3.org/TR/2001/REC-SVG-20010904/DTD/svg10.dtd">
<svg version="1.0" xmlns="http://www.w3.org/2000/svg"
 width="1024.000000pt" height="1024.000000pt" viewBox="0 0 1024.000000 1024.000000"
 preserveAspectRatio="xMidYMid meet">
<metadata>
Created by potrace 1.14, written by Peter Selinger 2001-2017
</metadata>
<g transform="translate(0.000000,1024.000000) scale(0.100000,-0.100000)"
fill="#000000" stroke="none">
<path d="M7570 9410 c0 -5 -6 -7 -14 -4 -29 11 -40 -50 -18 -93 11 -19 67 -46
88 -42 22 4 36 -4 83 -49 32 -31 53 -60 57 -80 5 -22 12 -31 23 -30 11 2 27
-25 58 -102 23 -58 42 -110 42 -116 1 -12 -117 46 -159 79 -14 10 -53 32 -88
47 -34 16 -75 38 -90 48 -15 11 -79 38 -142 60 -63 22 -127 45 -142 50 -94 37
-358 45 -493 16 -30 -7 -56 -12 -95 -18 -29 -5 -85 -19 -200 -50 -8 -2 -27 -9
-42 -15 -16 -6 -28 -8 -28 -6 0 3 -35 -13 -77 -34 -43 -22 -125 -62 -183 -88
-58 -27 -125 -62 -150 -78 -25 -16 -48 -28 -52 -27 -5 1 -8 -5 -8 -13 0 -8 -4
-15 -9 -15 -5 0 -23 -13 -39 -30 -17 -16 -32 -30 -35 -30 -22 0 -291 -272
-362 -366 -16 -22 -31 -41 -34 -44 -4 -3 -28 -34 -55 -68 l-49 -64 23 -56 c12
-32 47 -108 76 -170 30 -62 54 -115 54 -118 0 -6 9 -18 58 -74 21 -25 54 -67
73 -95 63 -92 92 -130 134 -170 23 -22 46 -48 51 -58 18 -31 186 -198 244
-241 30 -23 73 -58 95 -78 36 -33 87 -75 240 -198 28 -22 61 -49 75 -59 14
-11 45 -38 70 -60 25 -22 56 -46 70 -53 14 -7 30 -17 36 -23 12 -11 46 -38
119 -93 27 -20 61 -47 74 -59 13 -12 40 -30 60 -40 19 -10 46 -27 59 -38 13
-11 26 -19 28 -17 2 1 14 -7 26 -18 12 -11 34 -26 50 -32 15 -7 28 -16 28 -19
0 -4 14 -12 30 -19 17 -7 30 -17 30 -23 0 -6 3 -8 6 -4 3 3 24 -5 45 -19 21
-13 41 -24 44 -24 3 0 15 -9 27 -20 12 -11 28 -20 35 -20 7 0 13 -3 13 -8 0
-8 61 -38 73 -34 4 1 7 -2 7 -7 0 -8 37 -24 53 -22 4 1 7 -4 7 -10 0 -5 5 -7
10 -4 6 3 10 1 10 -5 0 -6 5 -8 10 -5 6 3 10 2 10 -4 0 -5 14 -12 30 -16 17
-4 30 -10 30 -14 0 -10 163 -76 212 -86 9 -2 26 -9 38 -15 12 -6 24 -9 27 -6
4 3 12 1 20 -5 7 -6 13 -8 13 -5 0 4 9 2 20 -4 10 -6 32 -12 47 -15 119 -18
193 -35 193 -45 0 -20 87 11 96 35 3 8 10 13 14 10 5 -3 11 4 15 15 4 11 10
18 15 15 10 -6 100 172 100 198 0 9 3 17 8 17 6 0 44 57 46 70 1 3 5 10 9 17
4 6 8 23 9 37 1 14 6 26 10 26 4 0 5 7 2 15 -4 8 -1 15 5 15 6 0 10 3 10 8 -1
4 0 10 1 15 5 13 6 22 15 62 4 22 10 45 14 50 3 6 7 15 8 20 1 6 9 33 17 60 7
28 16 67 19 87 2 20 8 41 11 47 7 11 10 21 21 87 8 46 13 69 15 69 1 0 3 23 5
50 2 28 7 70 11 95 9 56 13 471 5 485 -3 6 -7 28 -8 50 -3 43 -38 208 -52 240
-20 49 -50 132 -55 158 -6 25 -20 54 -108 232 -35 69 -75 129 -110 165 -13 14
-35 41 -48 60 -27 42 -191 215 -237 251 -22 18 -43 71 -63 158 -11 48 -64 167
-80 181 -3 3 -13 16 -21 30 -29 46 -209 240 -209 226 0 -5 -6 -4 -12 1 -21 16
-48 23 -48 13z"/>
<path d="M5084 7806 c-66 -102 -170 -414 -203 -611 -33 -196 -31 -466 4 -645
3 -14 8 -38 11 -55 10 -56 101 -323 134 -390 5 -11 25 -54 44 -95 42 -90 84
-164 134 -235 67 -95 199 -259 234 -290 18 -16 69 -62 113 -101 135 -119 299
-217 409 -243 54 -13 64 -10 44 11 -13 13 -16 22 -24 67 -3 13 -9 31 -13 40
-5 9 -9 19 -10 24 -1 4 -1 8 -2 10 -2 7 -8 40 -12 74 -6 43 -50 214 -72 283
-30 95 -104 338 -120 395 -10 33 -23 70 -31 82 -7 11 -15 32 -18 45 -2 12 -11
44 -20 69 -9 25 -17 54 -19 65 -2 10 -7 26 -10 34 -42 109 -107 291 -107 299
0 5 -29 99 -64 208 -86 267 -98 306 -100 323 -3 17 -10 34 -58 140 -52 113
-110 270 -124 339 -7 35 -51 128 -63 136 -6 3 -11 14 -11 25 0 31 -25 29 -46
-4z"/>
<path d="M2622 6553 c-53 -68 -124 -224 -137 -298 -23 -139 -24 -368 0 -477 3
-16 7 -40 9 -55 5 -39 16 -84 26 -108 5 -11 16 -42 25 -70 42 -123 55 -157 83
-217 16 -35 34 -80 41 -100 7 -21 16 -38 21 -38 4 0 26 -36 49 -80 22 -44 54
-95 70 -113 17 -18 48 -60 70 -95 22 -34 64 -87 93 -117 29 -30 62 -65 74 -78
58 -61 195 -187 204 -187 6 0 8 -4 5 -10 -3 -5 0 -10 8 -10 14 0 109 -67 115
-82 2 -4 7 -8 12 -8 5 0 35 -17 67 -38 107 -70 282 -138 386 -149 52 -5 57 -4
57 14 0 10 -5 24 -12 31 -9 9 -7 16 10 32 12 12 22 18 22 15 0 -3 9 3 21 14
24 22 38 111 18 111 -7 0 -9 3 -6 7 4 3 0 11 -8 17 -9 6 -17 20 -19 32 -2 12
-25 54 -50 95 -25 40 -46 82 -46 92 0 23 -26 74 -43 84 -7 4 -21 28 -31 52
-18 47 -60 110 -99 152 -14 14 -28 35 -31 47 -4 12 -11 22 -16 22 -4 0 -11 12
-15 27 -9 36 -72 148 -105 187 -33 40 -68 94 -115 181 -21 39 -61 106 -89 150
-28 44 -59 96 -67 115 -9 19 -33 56 -53 83 -20 26 -36 49 -36 51 0 3 -37 62
-82 133 -44 70 -99 157 -121 193 -22 36 -50 76 -63 90 -12 14 -30 41 -39 60
-23 44 -61 91 -69 83 -3 -4 -6 1 -6 10 0 10 -5 17 -11 17 -5 0 -7 5 -4 10 3 6
1 10 -5 10 -6 0 -9 4 -6 9 4 5 2 11 -3 13 -5 1 -11 10 -13 18 -2 8 -7 18 -11
21 -5 3 -10 21 -11 40 -4 48 -5 49 -20 49 -8 0 -28 -17 -44 -37z"/>
<path d="M4285 6044 c-9 -9 -14 -23 -11 -30 3 -8 1 -14 -3 -14 -11 0 -61 -98
-61 -118 0 -7 -11 -37 -24 -66 -14 -29 -30 -73 -36 -97 -7 -24 -18 -48 -27
-54 -13 -10 -18 -44 -11 -90 2 -15 -6 -22 -32 -31 -19 -6 -36 -18 -38 -25 -2
-8 -6 -21 -9 -29 -11 -28 -11 -35 3 -48 8 -7 16 -12 19 -12 34 1 45 -2 45 -15
0 -9 -9 -13 -27 -12 -38 3 -45 -30 -8 -39 26 -6 291 -8 370 -2 60 5 67 13 59
65 -4 25 -7 53 -8 62 0 9 -8 23 -17 31 -11 10 -15 33 -15 74 1 50 -2 59 -17
62 -39 6 -47 14 -47 49 0 20 -4 44 -9 53 -10 20 -18 59 -30 158 -7 59 -35 144
-46 144 -2 0 -11 -7 -20 -16z"/>
<path d="M4496 4862 c-3 -27 -10 -52 -14 -56 -4 -4 -7 -11 -8 -14 0 -4 -6 -20
-12 -35 -7 -16 -12 -32 -12 -36 0 -4 -16 -57 -36 -117 -30 -93 -36 -124 -38
-210 -1 -66 -6 -107 -14 -117 -21 -24 15 -40 45 -20 31 20 96 28 131 15 15 -6
58 -22 96 -36 38 -14 73 -23 78 -20 4 3 8 0 8 -6 0 -6 4 -9 9 -5 5 3 12 1 15
-4 3 -5 23 -12 43 -16 21 -4 90 -23 153 -42 63 -19 132 -37 153 -39 21 -3 53
-14 72 -25 l34 -21 7 26 c3 14 10 26 15 26 22 0 5 21 -48 60 -32 24 -80 72
-108 107 -27 36 -57 73 -65 83 -8 10 -33 43 -55 74 -22 30 -48 58 -57 62 -10
3 -18 12 -18 20 0 8 -4 13 -9 9 -5 -3 -26 19 -45 48 -20 29 -57 78 -84 108
-57 64 -219 229 -225 229 -3 0 -7 -22 -11 -48z"/>
<path d="M4337 4214 c3 -9 9 -12 12 -7 3 4 10 11 15 16 5 4 0 7 -12 7 -15 0
-20 -4 -15 -16z"/>
<path d="M6060 3956 c-14 -7 -42 -13 -62 -12 -21 1 -38 -1 -38 -5 0 -7 -52
-22 -65 -20 -6 2 -24 -13 -64 -49 -15 -14 -34 -26 -41 -28 -20 -5 -32 -26 -18
-31 7 -2 21 -12 32 -23 11 -10 25 -18 32 -18 7 0 17 -6 21 -13 14 -23 100 -77
133 -83 17 -4 33 -11 36 -15 3 -5 8 -7 12 -5 4 2 36 -15 72 -39 36 -24 68 -41
73 -38 4 2 -4 24 -19 48 -23 41 -25 52 -23 152 3 122 -12 193 -39 193 -9 -1
-28 -7 -42 -14z"/>
<path d="M2876 3503 c-1 -1 -37 -5 -81 -8 -146 -11 -176 -14 -233 -25 -32 -6
-70 -12 -87 -15 -16 -3 -41 -8 -55 -12 -14 -3 -31 -7 -38 -9 -23 -4 -26 -12
-29 -67 -1 -29 -4 -77 -7 -107 -12 -144 -1 -397 19 -430 2 -4 7 -26 10 -50 3
-24 10 -49 16 -57 6 -7 8 -13 4 -13 -4 0 -2 -7 5 -15 7 -8 9 -15 6 -15 -4 0 0
-10 8 -22 9 -12 16 -33 16 -45 0 -13 4 -23 9 -23 5 0 24 -34 42 -75 18 -41 36
-75 40 -75 4 0 12 -15 18 -32 7 -18 13 -35 14 -38 2 -6 27 -37 45 -55 6 -8 12
-17 12 -21 0 -4 28 -34 62 -68 35 -33 62 -65 60 -69 -1 -5 2 -6 7 -3 5 3 20
-6 33 -22 12 -15 75 -67 138 -114 63 -48 128 -98 144 -111 l30 -24 -24 -32
c-25 -36 -148 -141 -164 -141 -15 -1 -61 -43 -74 -66 -7 -13 -7 -25 0 -37 9
-17 11 -17 35 -2 13 9 32 24 42 33 102 99 249 222 264 222 6 0 80 -27 165 -61
211 -83 318 -110 467 -115 138 -4 220 5 393 47 179 43 328 109 482 214 151
103 363 333 434 470 11 22 33 60 48 84 23 36 55 122 62 166 1 6 5 16 9 23 5 6
6 12 2 12 -3 0 1 15 9 34 26 62 39 145 26 161 -7 8 -9 15 -4 15 4 0 -2 9 -14
20 -12 12 -22 25 -22 30 0 6 -5 10 -11 10 -15 0 -39 26 -32 34 4 3 1 6 -6 6
-7 0 -44 20 -82 45 -38 24 -69 42 -69 38 0 -3 -8 1 -17 9 -15 13 -83 48 -103
52 -25 6 -217 80 -224 87 -6 5 -20 9 -31 9 -12 0 -37 7 -55 16 -18 9 -44 18
-59 20 -39 5 -55 9 -68 17 -7 5 -17 6 -22 2 -5 -3 -12 -1 -15 4 -5 7 -36 16
-96 27 -8 1 -26 5 -40 9 -14 3 -32 8 -40 10 -8 2 -15 4 -15 5 0 3 -39 10 -60
12 -11 1 -25 5 -31 9 -14 11 -185 38 -201 32 -7 -3 -13 -1 -13 4 0 5 -6 10
-12 10 -7 0 -29 4 -48 8 -19 4 -48 9 -65 10 -37 4 -92 13 -125 19 -63 14 -147
22 -330 32 -94 5 -470 11 -474 7z"/>
</g>
</svg>
